<mxfile host="Electron" modified="2024-10-28T19:28:56.710Z" agent="Mozilla/5.0 (Windows NT 10.0; Win64; x64) AppleWebKit/537.36 (KHTML, like Gecko) draw.io/21.2.8 Chrome/112.0.5615.165 Electron/24.2.0 Safari/537.36" etag="2AYy3Aibu5Jkq-WdMFkp" version="21.2.8" type="device">
  <diagram name="Page-1" id="khwJB5AvHWgcF1GuxzYG">
    <mxGraphModel dx="1276" dy="623" grid="1" gridSize="10" guides="1" tooltips="1" connect="1" arrows="1" fold="1" page="1" pageScale="1" pageWidth="827" pageHeight="1169" math="0" shadow="0">
      <root>
        <mxCell id="0" />
        <mxCell id="1" parent="0" />
        <mxCell id="I8spz72LOjJrP3iN7pxy-11" value="" style="edgeStyle=orthogonalEdgeStyle;rounded=0;orthogonalLoop=1;jettySize=auto;html=1;" edge="1" parent="1" source="I8spz72LOjJrP3iN7pxy-1" target="I8spz72LOjJrP3iN7pxy-10">
          <mxGeometry relative="1" as="geometry" />
        </mxCell>
        <mxCell id="I8spz72LOjJrP3iN7pxy-1" value="ESP32-S3 Feather" style="rounded=0;whiteSpace=wrap;html=1;" vertex="1" parent="1">
          <mxGeometry x="340" y="280" width="120" height="60" as="geometry" />
        </mxCell>
        <mxCell id="I8spz72LOjJrP3iN7pxy-7" value="" style="edgeStyle=orthogonalEdgeStyle;rounded=0;orthogonalLoop=1;jettySize=auto;html=1;" edge="1" parent="1" source="I8spz72LOjJrP3iN7pxy-2" target="I8spz72LOjJrP3iN7pxy-1">
          <mxGeometry relative="1" as="geometry" />
        </mxCell>
        <mxCell id="I8spz72LOjJrP3iN7pxy-2" value="Joystick avec bouton intégré" style="rounded=0;whiteSpace=wrap;html=1;" vertex="1" parent="1">
          <mxGeometry x="240" y="380" width="120" height="60" as="geometry" />
        </mxCell>
        <mxCell id="I8spz72LOjJrP3iN7pxy-19" style="edgeStyle=orthogonalEdgeStyle;rounded=0;orthogonalLoop=1;jettySize=auto;html=1;entryX=1;entryY=0.5;entryDx=0;entryDy=0;" edge="1" parent="1" source="I8spz72LOjJrP3iN7pxy-4" target="I8spz72LOjJrP3iN7pxy-1">
          <mxGeometry relative="1" as="geometry" />
        </mxCell>
        <mxCell id="I8spz72LOjJrP3iN7pxy-4" value="Bouton (A, B, X, Y)" style="rounded=0;whiteSpace=wrap;html=1;" vertex="1" parent="1">
          <mxGeometry x="590" y="160" width="120" height="60" as="geometry" />
        </mxCell>
        <mxCell id="I8spz72LOjJrP3iN7pxy-9" style="edgeStyle=orthogonalEdgeStyle;rounded=0;orthogonalLoop=1;jettySize=auto;html=1;" edge="1" parent="1" source="I8spz72LOjJrP3iN7pxy-6" target="I8spz72LOjJrP3iN7pxy-1">
          <mxGeometry relative="1" as="geometry" />
        </mxCell>
        <mxCell id="I8spz72LOjJrP3iN7pxy-6" value="Joystick avec bouton intégré" style="rounded=0;whiteSpace=wrap;html=1;" vertex="1" parent="1">
          <mxGeometry x="440" y="380" width="120" height="60" as="geometry" />
        </mxCell>
        <mxCell id="I8spz72LOjJrP3iN7pxy-10" value="Bouton start et select" style="rounded=0;whiteSpace=wrap;html=1;" vertex="1" parent="1">
          <mxGeometry x="340" y="180" width="120" height="60" as="geometry" />
        </mxCell>
        <mxCell id="I8spz72LOjJrP3iN7pxy-18" style="edgeStyle=orthogonalEdgeStyle;rounded=0;orthogonalLoop=1;jettySize=auto;html=1;entryX=1;entryY=0.5;entryDx=0;entryDy=0;" edge="1" parent="1" source="I8spz72LOjJrP3iN7pxy-12" target="I8spz72LOjJrP3iN7pxy-1">
          <mxGeometry relative="1" as="geometry" />
        </mxCell>
        <mxCell id="I8spz72LOjJrP3iN7pxy-12" value="Bouton en angle (BR)" style="rounded=0;whiteSpace=wrap;html=1;" vertex="1" parent="1">
          <mxGeometry x="530" y="60" width="120" height="60" as="geometry" />
        </mxCell>
        <mxCell id="I8spz72LOjJrP3iN7pxy-17" style="edgeStyle=orthogonalEdgeStyle;rounded=0;orthogonalLoop=1;jettySize=auto;html=1;entryX=0;entryY=0.5;entryDx=0;entryDy=0;" edge="1" parent="1" source="I8spz72LOjJrP3iN7pxy-13" target="I8spz72LOjJrP3iN7pxy-1">
          <mxGeometry relative="1" as="geometry" />
        </mxCell>
        <mxCell id="I8spz72LOjJrP3iN7pxy-13" value="Bouton en angle (BL)" style="rounded=0;whiteSpace=wrap;html=1;" vertex="1" parent="1">
          <mxGeometry x="170" y="60" width="120" height="60" as="geometry" />
        </mxCell>
        <mxCell id="I8spz72LOjJrP3iN7pxy-16" style="edgeStyle=orthogonalEdgeStyle;rounded=0;orthogonalLoop=1;jettySize=auto;html=1;entryX=0;entryY=0.5;entryDx=0;entryDy=0;" edge="1" parent="1" source="I8spz72LOjJrP3iN7pxy-15" target="I8spz72LOjJrP3iN7pxy-1">
          <mxGeometry relative="1" as="geometry">
            <mxPoint x="290" y="310" as="targetPoint" />
          </mxGeometry>
        </mxCell>
        <mxCell id="I8spz72LOjJrP3iN7pxy-15" value="DEL (Alimentation, debug1,debug2 et debug3)" style="rounded=0;whiteSpace=wrap;html=1;" vertex="1" parent="1">
          <mxGeometry x="70" y="160" width="120" height="60" as="geometry" />
        </mxCell>
      </root>
    </mxGraphModel>
  </diagram>
</mxfile>
